<svg width="37" height="37" viewBox="0 0 37 37" fill="none" xmlns="http://www.w3.org/2000/svg">
<path d="M33.788 14.9991C34.6199 12.5034 34.3343 9.77183 33.0057 7.49963C31.0067 4.02303 26.9838 2.23506 23.0602 3.06696C21.3094 1.10516 18.8013 -0.012314 16.169 0.000102381C12.1585 0.000102381 8.59502 2.58272 7.35338 6.39456C4.77076 6.92847 2.54822 8.54261 1.2445 10.8272C-0.766966 14.3038 -0.307559 18.6744 2.38681 21.6544C1.55491 24.1501 1.84048 26.8817 3.16904 29.1415C5.16809 32.6305 9.19101 34.4184 13.127 33.5865C14.8653 35.5483 17.3734 36.6782 20.0057 36.6658C24.0162 36.6658 27.5797 34.0832 28.8214 30.2714C31.404 29.7374 33.6265 28.1233 34.9179 25.8387C36.9417 22.3621 36.4823 17.9915 33.788 15.0116V14.9991ZM30.9322 8.70402C31.7268 10.0947 32.0248 11.7212 31.7517 13.2981C31.702 13.2608 31.6027 13.2112 31.5406 13.1739L24.2397 8.95235C23.8672 8.74127 23.4078 8.74127 23.0353 8.95235L14.4804 13.8941V10.2685L21.5454 6.18348C24.8357 4.28377 29.0325 5.41367 30.9322 8.70402ZM14.4804 16.2408L18.0812 14.1548L21.6819 16.2408V20.4003L18.0812 22.4863L14.4804 20.4003V16.2408ZM16.1566 2.39647C17.7708 2.39647 19.3228 2.95521 20.5645 3.98578C20.5148 4.01061 20.4155 4.07269 20.341 4.10994L13.0401 8.31911C12.6676 8.53019 12.4441 8.92752 12.4441 9.36209V19.2456L9.30276 17.4328V9.26276C9.30276 5.46333 12.3696 2.39647 16.169 2.38406L16.1566 2.39647ZM3.33046 12.0316C4.13752 10.641 5.39158 9.57317 6.90639 9.01443V17.6935C6.90639 18.1281 7.12988 18.513 7.50238 18.7365L16.0449 23.6658L12.8911 25.491L5.83857 21.4184C2.56064 19.5187 1.43074 15.322 3.33046 12.0316ZM5.255 27.9619C4.44793 26.5837 4.16236 24.9447 4.43552 23.3678C4.48518 23.4051 4.58451 23.4547 4.6466 23.492L11.9475 27.7136C12.32 27.9247 12.7794 27.9247 13.1519 27.7136L21.6944 22.7718V26.3974L14.6294 30.47C11.3391 32.3573 7.1423 31.2398 5.24258 27.9619H5.255ZM20.0181 34.2694C18.4164 34.2694 16.8519 33.7107 15.6227 32.6801C15.6724 32.6553 15.7841 32.5932 15.8462 32.556L23.1471 28.3468C23.5196 28.1357 23.7555 27.7384 23.7431 27.3038V17.4328L26.8844 19.2456V27.4032C26.8844 31.2026 23.8051 34.2819 20.0181 34.2819V34.2694ZM32.8567 24.6343C32.0497 26.0249 30.7832 27.0928 29.2808 27.6391V18.96C29.2808 18.5254 29.0573 18.1281 28.6848 17.917L20.1299 12.9753L23.2712 11.1625L30.3362 15.2351C33.6265 17.1348 34.744 21.3315 32.8443 24.6219L32.8567 24.6343Z" fill="#2B77EA"/>
</svg>
